# Blender v3.4.1 OBJ File: 'gameworld.blend'
# www.blender.org
o background-col_Cube.001
v -100.000000 -23.415737 100.000000
v -100.000000 77.287949 100.000000
v -100.000000 -23.415737 -100.000000
v -100.000000 77.287949 -100.000000
v 100.000000 -23.415737 100.000000
v 100.000000 77.287949 100.000000
v 100.000000 -23.415737 -100.000000
v 100.000000 77.287949 -100.000000
vt 1.000000 0.000000
vt -0.000000 1.000000
vt 0.000000 0.000000
vt 0.000000 0.000000
vt 1.000000 1.000000
vt 1.000000 0.000000
vt 0.000000 1.000000
vt 1.000000 1.000000
vn 1.0000 0.0000 0.0000
vn 0.0000 0.0000 1.0000
vn -1.0000 0.0000 0.0000
vn 0.0000 0.0000 -1.0000
s off
f 3/1/1 2/2/1 1/3/1
f 7/4/2 4/5/2 3/1/2
f 5/6/3 8/7/3 7/4/3
f 1/3/4 6/8/4 5/6/4
f 3/1/1 4/5/1 2/2/1
f 7/4/2 8/7/2 4/5/2
f 5/6/3 6/8/3 8/7/3
f 1/3/4 2/2/4 6/8/4
